{
	"asset":{
		"generator":"Khronos glTF Blender I/O v4.0.44",
		"version":"2.0"
	},
	"scene":0,
	"scenes":[
		{
			"extras":{
				"thangs_blender_addon_sync_panel_status_message":"",
				"air_props":{}
			},
			"name":"Scene",
			"nodes":[
				0,
				2
			]
		}
	],
	"nodes":[
		{
			"name":"Node_0",
			"rotation":[
				-0.70710688829422,
				0,
				0,
				0.7071066498756409
			]
		},
		{
			"mesh":0,
			"name":"Layer.1"
		},
		{
			"children":[
				1
			],
			"name":"Node_0.001",
			"rotation":[
				-0.7071069478988647,
				0,
				0,
				0.7071066498756409
			],
			"scale":[
				0.029999999329447746,
				0.030000003054738045,
				0.030000003054738045
			]
		}
	],
	"materials":[
		{
			"doubleSided":true,
			"name":"Material.004",
			"pbrMetallicRoughness":{
				"baseColorFactor":[
					0.04971242696046829,
					0.19017772376537323,
					0.023681599646806717,
					1
				],
				"metallicFactor":0,
				"roughnessFactor":0.5
			}
		}
	],
	"meshes":[
		{
			"name":"Mesh_0.001",
			"primitives":[
				{
					"attributes":{
						"POSITION":0,
						"NORMAL":1,
						"TEXCOORD_0":2,
						"TANGENT":3
					},
					"indices":4,
					"material":0
				}
			]
		}
	],
	"accessors":[
		{
			"bufferView":0,
			"componentType":5126,
			"count":1634,
			"max":[
				8,
				7,
				15
			],
			"min":[
				-4,
				-5,
				0
			],
			"type":"VEC3"
		},
		{
			"bufferView":1,
			"componentType":5126,
			"count":1634,
			"type":"VEC3"
		},
		{
			"bufferView":2,
			"componentType":5126,
			"count":1634,
			"type":"VEC2"
		},
		{
			"bufferView":3,
			"componentType":5126,
			"count":1634,
			"type":"VEC4"
		},
		{
			"bufferView":4,
			"componentType":5123,
			"count":3540,
			"type":"SCALAR"
		}
	],
	"bufferViews":[
		{
			"buffer":0,
			"byteLength":19608,
			"byteOffset":0,
			"target":34962
		},
		{
			"buffer":0,
			"byteLength":19608,
			"byteOffset":19608,
			"target":34962
		},
		{
			"buffer":0,
			"byteLength":13072,
			"byteOffset":39216,
			"target":34962
		},
		{
			"buffer":0,
			"byteLength":26144,
			"byteOffset":52288,
			"target":34962
		},
		{
			"buffer":0,
			"byteLength":7080,
			"byteOffset":78432,
			"target":34963
		}
	],
	"buffers":[
		{
			"byteLength":85512,
			"uri":"bush-c59f841e51787068f789d63690b77cd2.bin"
		}
	]
}
