{
	"asset":{
		"generator":"Khronos glTF Blender I/O v4.0.44",
		"version":"2.0"
	},
	"scene":0,
	"scenes":[
		{
			"extras":{
				"thangs_blender_addon_sync_panel_status_message":"",
				"air_props":{}
			},
			"name":"Scene",
			"nodes":[
				11
			]
		}
	],
	"nodes":[
		{
			"name":"LowerLegL",
			"rotation":[
				-0.0002365791442571208,
				0.016005242243409157,
				-0.01585696078836918,
				0.9997461438179016
			],
			"scale":[
				0.9999998211860657,
				0.9999998807907104,
				0.9999998807907104
			],
			"translation":[
				5.820766091346741e-10,
				0.4154990315437317,
				9.866198524832726e-09
			]
		},
		{
			"children":[
				0
			],
			"name":"UpperLegL",
			"rotation":[
				-0.03914068266749382,
				0.19006384909152985,
				-0.1888137012720108,
				0.9626490473747253
			],
			"scale":[
				1,
				0.9999998807907104,
				0.9999998807907104
			],
			"translation":[
				-0.034863024950027466,
				0.3640453517436981,
				-0.08495054394006729
			]
		},
		{
			"name":"UpperLegR.001",
			"rotation":[
				0.001183654647320509,
				0.015678107738494873,
				-0.015814490616321564,
				0.9997513294219971
			],
			"scale":[
				0.9999998807907104,
				1,
				0.9999998211860657
			],
			"translation":[
				-5.820766091346741e-10,
				0.4154989421367645,
				-9.807990863919258e-09
			]
		},
		{
			"children":[
				2
			],
			"name":"UpperLegR",
			"rotation":[
				-0.02985832281410694,
				0.18824511766433716,
				-0.19050222635269165,
				0.963006317615509
			],
			"scale":[
				1,
				0.9999998807907104,
				0.9999999403953552
			],
			"translation":[
				0.03234905004501343,
				0.3640454113483429,
				0.0863412544131279
			]
		},
		{
			"children":[
				1,
				3
			],
			"name":"LowerSpine",
			"rotation":[
				-0.9002442955970764,
				0.38864725828170776,
				-0.06425461173057556,
				0.1854315549135208
			],
			"scale":[
				0.9999997615814209,
				0.9999997615814209,
				0.9999998211860657
			],
			"translation":[
				0,
				-3.725290298461914e-08,
				-1.862645149230957e-08
			]
		},
		{
			"children":[
				4
			],
			"name":"UpperSpine",
			"rotation":[
				-0.06520639359951019,
				0.24688972532749176,
				0.24688972532749176,
				0.9347935914993286
			],
			"scale":[
				0.9999999403953552,
				1,
				1
			],
			"translation":[
				0.1100301593542099,
				0.3337594270706177,
				0
			]
		},
		{
			"name":"HandR",
			"rotation":[
				0.06084972620010376,
				-0.0003087287477683276,
				0.024296769872307777,
				0.9978511333465576
			],
			"translation":[
				-2.444721758365631e-09,
				0.2951953113079071,
				-8.341521606780589e-08
			]
		},
		{
			"children":[
				6
			],
			"name":"LowerArmR",
			"rotation":[
				-0.7597075700759888,
				-0.018377983942627907,
				-0.018377983942627907,
				0.6497452855110168
			],
			"scale":[
				1,
				0.9999999403953552,
				1
			],
			"translation":[
				-0.01612824574112892,
				0.48663580417633057,
				-0.2172831892967224
			]
		},
		{
			"name":"HandL",
			"rotation":[
				-0.06546279788017273,
				-0.2202731817960739,
				-0.002776186214759946,
				0.9732351303100586
			],
			"scale":[
				1,
				0.9999998807907104,
				0.9999999403953552
			],
			"translation":[
				3.888271749019623e-08,
				0.2951953113079071,
				2.7706846594810486e-08
			]
		},
		{
			"children":[
				8
			],
			"name":"LowerArmL",
			"rotation":[
				0.7263479232788086,
				0.22341051697731018,
				0.22341172397136688,
				0.6104041337966919
			],
			"scale":[
				0.9999992847442627,
				0.9999999403953552,
				0.999993622303009
			],
			"translation":[
				-0.01612824574112892,
				0.48663580417633057,
				0.2169068455696106
			]
		},
		{
			"mesh":0,
			"name":"Cube",
			"skin":0
		},
		{
			"children":[
				10,
				5,
				7,
				9
			],
			"name":"Armature",
			"translation":[
				0,
				0.7616473436355591,
				0
			]
		}
	],
	"animations":[
		{
			"channels":[
				{
					"sampler":0,
					"target":{
						"node":5,
						"path":"translation"
					}
				},
				{
					"sampler":1,
					"target":{
						"node":5,
						"path":"rotation"
					}
				},
				{
					"sampler":2,
					"target":{
						"node":5,
						"path":"scale"
					}
				},
				{
					"sampler":3,
					"target":{
						"node":4,
						"path":"translation"
					}
				},
				{
					"sampler":4,
					"target":{
						"node":4,
						"path":"rotation"
					}
				},
				{
					"sampler":5,
					"target":{
						"node":4,
						"path":"scale"
					}
				},
				{
					"sampler":6,
					"target":{
						"node":1,
						"path":"translation"
					}
				},
				{
					"sampler":7,
					"target":{
						"node":1,
						"path":"rotation"
					}
				},
				{
					"sampler":8,
					"target":{
						"node":1,
						"path":"scale"
					}
				},
				{
					"sampler":9,
					"target":{
						"node":0,
						"path":"translation"
					}
				},
				{
					"sampler":10,
					"target":{
						"node":0,
						"path":"rotation"
					}
				},
				{
					"sampler":11,
					"target":{
						"node":0,
						"path":"scale"
					}
				},
				{
					"sampler":12,
					"target":{
						"node":3,
						"path":"translation"
					}
				},
				{
					"sampler":13,
					"target":{
						"node":3,
						"path":"rotation"
					}
				},
				{
					"sampler":14,
					"target":{
						"node":3,
						"path":"scale"
					}
				},
				{
					"sampler":15,
					"target":{
						"node":2,
						"path":"translation"
					}
				},
				{
					"sampler":16,
					"target":{
						"node":2,
						"path":"rotation"
					}
				},
				{
					"sampler":17,
					"target":{
						"node":2,
						"path":"scale"
					}
				},
				{
					"sampler":18,
					"target":{
						"node":7,
						"path":"translation"
					}
				},
				{
					"sampler":19,
					"target":{
						"node":7,
						"path":"rotation"
					}
				},
				{
					"sampler":20,
					"target":{
						"node":7,
						"path":"scale"
					}
				},
				{
					"sampler":21,
					"target":{
						"node":6,
						"path":"translation"
					}
				},
				{
					"sampler":22,
					"target":{
						"node":6,
						"path":"rotation"
					}
				},
				{
					"sampler":23,
					"target":{
						"node":6,
						"path":"scale"
					}
				},
				{
					"sampler":24,
					"target":{
						"node":9,
						"path":"translation"
					}
				},
				{
					"sampler":25,
					"target":{
						"node":9,
						"path":"rotation"
					}
				},
				{
					"sampler":26,
					"target":{
						"node":9,
						"path":"scale"
					}
				},
				{
					"sampler":27,
					"target":{
						"node":8,
						"path":"translation"
					}
				},
				{
					"sampler":28,
					"target":{
						"node":8,
						"path":"rotation"
					}
				},
				{
					"sampler":29,
					"target":{
						"node":8,
						"path":"scale"
					}
				}
			],
			"name":"ArmatureAction.001",
			"samplers":[
				{
					"input":31,
					"interpolation":"STEP",
					"output":32
				},
				{
					"input":31,
					"interpolation":"STEP",
					"output":33
				},
				{
					"input":31,
					"interpolation":"STEP",
					"output":34
				},
				{
					"input":31,
					"interpolation":"STEP",
					"output":35
				},
				{
					"input":31,
					"interpolation":"STEP",
					"output":36
				},
				{
					"input":31,
					"interpolation":"STEP",
					"output":37
				},
				{
					"input":31,
					"interpolation":"STEP",
					"output":38
				},
				{
					"input":39,
					"interpolation":"LINEAR",
					"output":40
				},
				{
					"input":31,
					"interpolation":"STEP",
					"output":41
				},
				{
					"input":31,
					"interpolation":"STEP",
					"output":42
				},
				{
					"input":39,
					"interpolation":"LINEAR",
					"output":43
				},
				{
					"input":31,
					"interpolation":"STEP",
					"output":44
				},
				{
					"input":31,
					"interpolation":"STEP",
					"output":45
				},
				{
					"input":39,
					"interpolation":"LINEAR",
					"output":46
				},
				{
					"input":31,
					"interpolation":"STEP",
					"output":47
				},
				{
					"input":31,
					"interpolation":"STEP",
					"output":48
				},
				{
					"input":39,
					"interpolation":"LINEAR",
					"output":49
				},
				{
					"input":31,
					"interpolation":"STEP",
					"output":50
				},
				{
					"input":31,
					"interpolation":"STEP",
					"output":51
				},
				{
					"input":39,
					"interpolation":"LINEAR",
					"output":52
				},
				{
					"input":31,
					"interpolation":"STEP",
					"output":53
				},
				{
					"input":31,
					"interpolation":"STEP",
					"output":54
				},
				{
					"input":39,
					"interpolation":"LINEAR",
					"output":55
				},
				{
					"input":31,
					"interpolation":"STEP",
					"output":56
				},
				{
					"input":31,
					"interpolation":"STEP",
					"output":57
				},
				{
					"input":39,
					"interpolation":"LINEAR",
					"output":58
				},
				{
					"input":31,
					"interpolation":"STEP",
					"output":59
				},
				{
					"input":31,
					"interpolation":"STEP",
					"output":60
				},
				{
					"input":39,
					"interpolation":"LINEAR",
					"output":61
				},
				{
					"input":31,
					"interpolation":"STEP",
					"output":62
				}
			]
		}
	],
	"materials":[
		{
			"alphaMode":"BLEND",
			"doubleSided":true,
			"name":"Material",
			"pbrMetallicRoughness":{
				"baseColorFactor":[
					0.9021310806274414,
					0.6078352332115173,
					0.13854540884494781,
					1
				],
				"metallicFactor":0,
				"roughnessFactor":0.5
			}
		},
		{
			"doubleSided":true,
			"name":"Material.001",
			"pbrMetallicRoughness":{
				"baseColorFactor":[
					0.028425734490156174,
					0.8002194166183472,
					0.11446347087621689,
					1
				],
				"metallicFactor":0,
				"roughnessFactor":0.5
			}
		},
		{
			"doubleSided":true,
			"name":"Material.002",
			"pbrMetallicRoughness":{
				"baseColorFactor":[
					0.14575941860675812,
					0.12128525972366333,
					0.8002511262893677,
					1
				],
				"metallicFactor":0,
				"roughnessFactor":0.751968502998352
			}
		},
		{
			"doubleSided":true,
			"name":"Material.003",
			"pbrMetallicRoughness":{
				"baseColorFactor":[
					0.8002825975418091,
					0.3031771183013916,
					0,
					1
				],
				"metallicFactor":0,
				"roughnessFactor":0.5
			}
		},
		{
			"doubleSided":true,
			"name":"Material.004",
			"pbrMetallicRoughness":{
				"baseColorFactor":[
					0.605151891708374,
					0.8004969358444214,
					0.7570728063583374,
					1
				],
				"metallicFactor":0,
				"roughnessFactor":0.5
			}
		}
	],
	"meshes":[
		{
			"name":"Cube.001",
			"primitives":[
				{
					"attributes":{
						"POSITION":0,
						"NORMAL":1,
						"TEXCOORD_0":2,
						"JOINTS_0":3,
						"WEIGHTS_0":4
					},
					"indices":5,
					"material":0
				},
				{
					"attributes":{
						"POSITION":6,
						"NORMAL":7,
						"TEXCOORD_0":8,
						"JOINTS_0":9,
						"WEIGHTS_0":10
					},
					"indices":11,
					"material":1
				},
				{
					"attributes":{
						"POSITION":12,
						"NORMAL":13,
						"TEXCOORD_0":14,
						"JOINTS_0":15,
						"WEIGHTS_0":16
					},
					"indices":17,
					"material":2
				},
				{
					"attributes":{
						"POSITION":18,
						"NORMAL":19,
						"TEXCOORD_0":20,
						"JOINTS_0":21,
						"WEIGHTS_0":22
					},
					"indices":23,
					"material":3
				},
				{
					"attributes":{
						"POSITION":24,
						"NORMAL":25,
						"TEXCOORD_0":26,
						"JOINTS_0":27,
						"WEIGHTS_0":28
					},
					"indices":29,
					"material":4
				}
			]
		}
	],
	"skins":[
		{
			"inverseBindMatrices":30,
			"joints":[
				5,
				4,
				1,
				0,
				3,
				2,
				7,
				6,
				9,
				8
			],
			"name":"Armature"
		}
	],
	"accessors":[
		{
			"bufferView":0,
			"componentType":5126,
			"count":481,
			"max":[
				0.1789424866437912,
				1.583802580833435,
				0.8734890818595886
			],
			"min":[
				-0.22500000894069672,
				0.041839420795440674,
				-0.8734890818595886
			],
			"type":"VEC3"
		},
		{
			"bufferView":1,
			"componentType":5126,
			"count":481,
			"type":"VEC3"
		},
		{
			"bufferView":2,
			"componentType":5126,
			"count":481,
			"type":"VEC2"
		},
		{
			"bufferView":3,
			"componentType":5121,
			"count":481,
			"type":"VEC4"
		},
		{
			"bufferView":4,
			"componentType":5126,
			"count":481,
			"type":"VEC4"
		},
		{
			"bufferView":5,
			"componentType":5123,
			"count":885,
			"type":"SCALAR"
		},
		{
			"bufferView":6,
			"componentType":5126,
			"count":191,
			"max":[
				0.17500001192092896,
				1.2972770929336548,
				0.5130289793014526
			],
			"min":[
				-0.22500000894069672,
				0.7650182247161865,
				-0.5130289793014526
			],
			"type":"VEC3"
		},
		{
			"bufferView":7,
			"componentType":5126,
			"count":191,
			"type":"VEC3"
		},
		{
			"bufferView":8,
			"componentType":5126,
			"count":191,
			"type":"VEC2"
		},
		{
			"bufferView":9,
			"componentType":5121,
			"count":191,
			"type":"VEC4"
		},
		{
			"bufferView":10,
			"componentType":5126,
			"count":191,
			"type":"VEC4"
		},
		{
			"bufferView":11,
			"componentType":5123,
			"count":324,
			"type":"SCALAR"
		},
		{
			"bufferView":12,
			"componentType":5126,
			"count":240,
			"max":[
				0.125,
				0.7860003709793091,
				0.20303572714328766
			],
			"min":[
				-0.21562500298023224,
				0.12455141544342041,
				-0.20303572714328766
			],
			"type":"VEC3"
		},
		{
			"bufferView":13,
			"componentType":5126,
			"count":240,
			"type":"VEC3"
		},
		{
			"bufferView":14,
			"componentType":5126,
			"count":240,
			"type":"VEC2"
		},
		{
			"bufferView":15,
			"componentType":5121,
			"count":240,
			"type":"VEC4"
		},
		{
			"bufferView":16,
			"componentType":5126,
			"count":240,
			"type":"VEC4"
		},
		{
			"bufferView":17,
			"componentType":5123,
			"count":396,
			"type":"SCALAR"
		},
		{
			"bufferView":18,
			"componentType":5126,
			"count":91,
			"max":[
				0.15394248068332672,
				1.583802580833435,
				0.1489633023738861
			],
			"min":[
				-0.1439424753189087,
				1.4334077835083008,
				-0.1489633023738861
			],
			"type":"VEC3"
		},
		{
			"bufferView":19,
			"componentType":5126,
			"count":91,
			"type":"VEC3"
		},
		{
			"bufferView":20,
			"componentType":5126,
			"count":91,
			"type":"VEC2"
		},
		{
			"bufferView":21,
			"componentType":5121,
			"count":91,
			"type":"VEC4"
		},
		{
			"bufferView":22,
			"componentType":5126,
			"count":91,
			"type":"VEC4"
		},
		{
			"bufferView":23,
			"componentType":5123,
			"count":186,
			"type":"SCALAR"
		},
		{
			"bufferView":24,
			"componentType":5126,
			"count":116,
			"max":[
				0.20640738308429718,
				1.535937786102295,
				0.16287627816200256
			],
			"min":[
				-0.1067553162574768,
				0,
				-0.16287627816200256
			],
			"type":"VEC3"
		},
		{
			"bufferView":25,
			"componentType":5126,
			"count":116,
			"type":"VEC3"
		},
		{
			"bufferView":26,
			"componentType":5126,
			"count":116,
			"type":"VEC2"
		},
		{
			"bufferView":27,
			"componentType":5121,
			"count":116,
			"type":"VEC4"
		},
		{
			"bufferView":28,
			"componentType":5126,
			"count":116,
			"type":"VEC4"
		},
		{
			"bufferView":29,
			"componentType":5123,
			"count":198,
			"type":"SCALAR"
		},
		{
			"bufferView":30,
			"componentType":5126,
			"count":10,
			"type":"MAT4"
		},
		{
			"bufferView":31,
			"componentType":5126,
			"count":2,
			"max":[
				1.0416666666666667
			],
			"min":[
				0
			],
			"type":"SCALAR"
		},
		{
			"bufferView":32,
			"componentType":5126,
			"count":2,
			"type":"VEC3"
		},
		{
			"bufferView":33,
			"componentType":5126,
			"count":2,
			"type":"VEC4"
		},
		{
			"bufferView":34,
			"componentType":5126,
			"count":2,
			"type":"VEC3"
		},
		{
			"bufferView":35,
			"componentType":5126,
			"count":2,
			"type":"VEC3"
		},
		{
			"bufferView":36,
			"componentType":5126,
			"count":2,
			"type":"VEC4"
		},
		{
			"bufferView":37,
			"componentType":5126,
			"count":2,
			"type":"VEC3"
		},
		{
			"bufferView":38,
			"componentType":5126,
			"count":2,
			"type":"VEC3"
		},
		{
			"bufferView":39,
			"componentType":5126,
			"count":26,
			"max":[
				1.0416666666666667
			],
			"min":[
				0
			],
			"type":"SCALAR"
		},
		{
			"bufferView":40,
			"componentType":5126,
			"count":26,
			"type":"VEC4"
		},
		{
			"bufferView":41,
			"componentType":5126,
			"count":2,
			"type":"VEC3"
		},
		{
			"bufferView":42,
			"componentType":5126,
			"count":2,
			"type":"VEC3"
		},
		{
			"bufferView":43,
			"componentType":5126,
			"count":26,
			"type":"VEC4"
		},
		{
			"bufferView":44,
			"componentType":5126,
			"count":2,
			"type":"VEC3"
		},
		{
			"bufferView":45,
			"componentType":5126,
			"count":2,
			"type":"VEC3"
		},
		{
			"bufferView":46,
			"componentType":5126,
			"count":26,
			"type":"VEC4"
		},
		{
			"bufferView":47,
			"componentType":5126,
			"count":2,
			"type":"VEC3"
		},
		{
			"bufferView":48,
			"componentType":5126,
			"count":2,
			"type":"VEC3"
		},
		{
			"bufferView":49,
			"componentType":5126,
			"count":26,
			"type":"VEC4"
		},
		{
			"bufferView":50,
			"componentType":5126,
			"count":2,
			"type":"VEC3"
		},
		{
			"bufferView":51,
			"componentType":5126,
			"count":2,
			"type":"VEC3"
		},
		{
			"bufferView":52,
			"componentType":5126,
			"count":26,
			"type":"VEC4"
		},
		{
			"bufferView":53,
			"componentType":5126,
			"count":2,
			"type":"VEC3"
		},
		{
			"bufferView":54,
			"componentType":5126,
			"count":2,
			"type":"VEC3"
		},
		{
			"bufferView":55,
			"componentType":5126,
			"count":26,
			"type":"VEC4"
		},
		{
			"bufferView":56,
			"componentType":5126,
			"count":2,
			"type":"VEC3"
		},
		{
			"bufferView":57,
			"componentType":5126,
			"count":2,
			"type":"VEC3"
		},
		{
			"bufferView":58,
			"componentType":5126,
			"count":26,
			"type":"VEC4"
		},
		{
			"bufferView":59,
			"componentType":5126,
			"count":2,
			"type":"VEC3"
		},
		{
			"bufferView":60,
			"componentType":5126,
			"count":2,
			"type":"VEC3"
		},
		{
			"bufferView":61,
			"componentType":5126,
			"count":26,
			"type":"VEC4"
		},
		{
			"bufferView":62,
			"componentType":5126,
			"count":2,
			"type":"VEC3"
		}
	],
	"bufferViews":[
		{
			"buffer":0,
			"byteLength":5772,
			"byteOffset":0,
			"target":34962
		},
		{
			"buffer":0,
			"byteLength":5772,
			"byteOffset":5772,
			"target":34962
		},
		{
			"buffer":0,
			"byteLength":3848,
			"byteOffset":11544,
			"target":34962
		},
		{
			"buffer":0,
			"byteLength":1924,
			"byteOffset":15392,
			"target":34962
		},
		{
			"buffer":0,
			"byteLength":7696,
			"byteOffset":17316,
			"target":34962
		},
		{
			"buffer":0,
			"byteLength":1770,
			"byteOffset":25012,
			"target":34963
		},
		{
			"buffer":0,
			"byteLength":2292,
			"byteOffset":26784,
			"target":34962
		},
		{
			"buffer":0,
			"byteLength":2292,
			"byteOffset":29076,
			"target":34962
		},
		{
			"buffer":0,
			"byteLength":1528,
			"byteOffset":31368,
			"target":34962
		},
		{
			"buffer":0,
			"byteLength":764,
			"byteOffset":32896,
			"target":34962
		},
		{
			"buffer":0,
			"byteLength":3056,
			"byteOffset":33660,
			"target":34962
		},
		{
			"buffer":0,
			"byteLength":648,
			"byteOffset":36716,
			"target":34963
		},
		{
			"buffer":0,
			"byteLength":2880,
			"byteOffset":37364,
			"target":34962
		},
		{
			"buffer":0,
			"byteLength":2880,
			"byteOffset":40244,
			"target":34962
		},
		{
			"buffer":0,
			"byteLength":1920,
			"byteOffset":43124,
			"target":34962
		},
		{
			"buffer":0,
			"byteLength":960,
			"byteOffset":45044,
			"target":34962
		},
		{
			"buffer":0,
			"byteLength":3840,
			"byteOffset":46004,
			"target":34962
		},
		{
			"buffer":0,
			"byteLength":792,
			"byteOffset":49844,
			"target":34963
		},
		{
			"buffer":0,
			"byteLength":1092,
			"byteOffset":50636,
			"target":34962
		},
		{
			"buffer":0,
			"byteLength":1092,
			"byteOffset":51728,
			"target":34962
		},
		{
			"buffer":0,
			"byteLength":728,
			"byteOffset":52820,
			"target":34962
		},
		{
			"buffer":0,
			"byteLength":364,
			"byteOffset":53548,
			"target":34962
		},
		{
			"buffer":0,
			"byteLength":1456,
			"byteOffset":53912,
			"target":34962
		},
		{
			"buffer":0,
			"byteLength":372,
			"byteOffset":55368,
			"target":34963
		},
		{
			"buffer":0,
			"byteLength":1392,
			"byteOffset":55740,
			"target":34962
		},
		{
			"buffer":0,
			"byteLength":1392,
			"byteOffset":57132,
			"target":34962
		},
		{
			"buffer":0,
			"byteLength":928,
			"byteOffset":58524,
			"target":34962
		},
		{
			"buffer":0,
			"byteLength":464,
			"byteOffset":59452,
			"target":34962
		},
		{
			"buffer":0,
			"byteLength":1856,
			"byteOffset":59916,
			"target":34962
		},
		{
			"buffer":0,
			"byteLength":396,
			"byteOffset":61772,
			"target":34963
		},
		{
			"buffer":0,
			"byteLength":640,
			"byteOffset":62168
		},
		{
			"buffer":0,
			"byteLength":8,
			"byteOffset":62808
		},
		{
			"buffer":0,
			"byteLength":24,
			"byteOffset":62816
		},
		{
			"buffer":0,
			"byteLength":32,
			"byteOffset":62840
		},
		{
			"buffer":0,
			"byteLength":24,
			"byteOffset":62872
		},
		{
			"buffer":0,
			"byteLength":24,
			"byteOffset":62896
		},
		{
			"buffer":0,
			"byteLength":32,
			"byteOffset":62920
		},
		{
			"buffer":0,
			"byteLength":24,
			"byteOffset":62952
		},
		{
			"buffer":0,
			"byteLength":24,
			"byteOffset":62976
		},
		{
			"buffer":0,
			"byteLength":104,
			"byteOffset":63000
		},
		{
			"buffer":0,
			"byteLength":416,
			"byteOffset":63104
		},
		{
			"buffer":0,
			"byteLength":24,
			"byteOffset":63520
		},
		{
			"buffer":0,
			"byteLength":24,
			"byteOffset":63544
		},
		{
			"buffer":0,
			"byteLength":416,
			"byteOffset":63568
		},
		{
			"buffer":0,
			"byteLength":24,
			"byteOffset":63984
		},
		{
			"buffer":0,
			"byteLength":24,
			"byteOffset":64008
		},
		{
			"buffer":0,
			"byteLength":416,
			"byteOffset":64032
		},
		{
			"buffer":0,
			"byteLength":24,
			"byteOffset":64448
		},
		{
			"buffer":0,
			"byteLength":24,
			"byteOffset":64472
		},
		{
			"buffer":0,
			"byteLength":416,
			"byteOffset":64496
		},
		{
			"buffer":0,
			"byteLength":24,
			"byteOffset":64912
		},
		{
			"buffer":0,
			"byteLength":24,
			"byteOffset":64936
		},
		{
			"buffer":0,
			"byteLength":416,
			"byteOffset":64960
		},
		{
			"buffer":0,
			"byteLength":24,
			"byteOffset":65376
		},
		{
			"buffer":0,
			"byteLength":24,
			"byteOffset":65400
		},
		{
			"buffer":0,
			"byteLength":416,
			"byteOffset":65424
		},
		{
			"buffer":0,
			"byteLength":24,
			"byteOffset":65840
		},
		{
			"buffer":0,
			"byteLength":24,
			"byteOffset":65864
		},
		{
			"buffer":0,
			"byteLength":416,
			"byteOffset":65888
		},
		{
			"buffer":0,
			"byteLength":24,
			"byteOffset":66304
		},
		{
			"buffer":0,
			"byteLength":24,
			"byteOffset":66328
		},
		{
			"buffer":0,
			"byteLength":416,
			"byteOffset":66352
		},
		{
			"buffer":0,
			"byteLength":24,
			"byteOffset":66768
		}
	],
	"buffers":[
		{
			"byteLength":66792,
			"uri":"NewHuman-3c58dcf6cca69340df28f872cbb9216b.bin"
		}
	]
}
