{
	"asset":{
		"generator":"Khronos glTF Blender I/O v4.0.44",
		"version":"2.0"
	},
	"scene":0,
	"scenes":[
		{
			"extras":{
				"thangs_blender_addon_sync_panel_status_message":"",
				"air_props":{}
			},
			"name":"Scene",
			"nodes":[
				1
			]
		}
	],
	"nodes":[
		{
			"mesh":0,
			"name":"Layer.1",
			"rotation":[
				1,
				0,
				0,
				0
			],
			"scale":[
				0.06666667014360428,
				0.06666667014360428,
				0.06666667014360428
			],
			"translation":[
				0,
				-0.1599999964237213,
				1
			]
		},
		{
			"children":[
				0
			],
			"name":"Node_0",
			"rotation":[
				-0.70710688829422,
				0,
				0,
				0.7071066498756409
			]
		}
	],
	"materials":[
		{
			"name":"Material.1",
			"pbrMetallicRoughness":{
				"baseColorTexture":{
					"index":0
				},
				"metallicFactor":0.20000000298023224,
				"roughnessFactor":0.5
			}
		}
	],
	"meshes":[
		{
			"name":"Mesh_0",
			"primitives":[
				{
					"attributes":{
						"POSITION":0,
						"NORMAL":1,
						"TEXCOORD_0":2,
						"TANGENT":3
					},
					"indices":4,
					"material":0
				}
			]
		}
	],
	"textures":[
		{
			"sampler":0,
			"source":0
		}
	],
	"images":[
		{
			"mimeType":"image/png",
			"name":"Image_0",
			"uri":"../../textures/Image_0.png"
		}
	],
	"accessors":[
		{
			"bufferView":0,
			"componentType":5126,
			"count":4820,
			"max":[
				9,
				7,
				15
			],
			"min":[
				-9,
				-11,
				0
			],
			"type":"VEC3"
		},
		{
			"bufferView":1,
			"componentType":5126,
			"count":4820,
			"type":"VEC3"
		},
		{
			"bufferView":2,
			"componentType":5126,
			"count":4820,
			"type":"VEC2"
		},
		{
			"bufferView":3,
			"componentType":5126,
			"count":4820,
			"type":"VEC4"
		},
		{
			"bufferView":4,
			"componentType":5123,
			"count":13392,
			"type":"SCALAR"
		}
	],
	"bufferViews":[
		{
			"buffer":0,
			"byteLength":57840,
			"byteOffset":0,
			"target":34962
		},
		{
			"buffer":0,
			"byteLength":57840,
			"byteOffset":57840,
			"target":34962
		},
		{
			"buffer":0,
			"byteLength":38560,
			"byteOffset":115680,
			"target":34962
		},
		{
			"buffer":0,
			"byteLength":77120,
			"byteOffset":154240,
			"target":34962
		},
		{
			"buffer":0,
			"byteLength":26784,
			"byteOffset":231360,
			"target":34963
		}
	],
	"samplers":[
		{
			"magFilter":9729,
			"minFilter":9987
		}
	],
	"buffers":[
		{
			"byteLength":258144,
			"uri":"Obstacle-f8dbbdf5f96b62096e434e7eb4acd1a6.bin"
		}
	]
}
